<svg width="26" height="25" viewBox="0 0 26 25" fill="none" xmlns="http://www.w3.org/2000/svg">
<path d="M9.40342 24.1547C9.05615 24.1566 8.71296 24.0798 8.39961 23.9301C8.08626 23.7804 7.8109 23.5617 7.59421 23.2903L1.24321 15.5103C0.942788 15.1423 0.751267 14.6976 0.690286 14.2265C0.629305 13.7554 0.701295 13.2766 0.898121 12.8442C1.09495 12.4119 1.40876 12.0432 1.80412 11.7798C2.19947 11.5165 2.6606 11.3689 3.1354 11.3538C3.16267 11.353 3.19011 11.3526 3.21744 11.3526C3.8512 11.3522 4.4622 11.5888 4.9305 12.0158L9.23806 15.9357C9.36127 16.0478 9.52187 16.1099 9.68846 16.11C9.7005 16.11 9.71255 16.1096 9.72459 16.1089C9.81313 16.1042 9.89984 16.0818 9.97967 16.0433C10.0595 16.0047 10.1309 15.9506 10.1897 15.8843L23.3978 0.96102C23.4036 0.954439 23.4092 0.947747 23.4148 0.940943C23.4792 0.862075 23.5592 0.797384 23.6499 0.750941C23.7405 0.704498 23.8397 0.677306 23.9413 0.671076C23.9591 0.669904 23.9774 0.669235 23.9956 0.669235C24.1846 0.668309 24.3668 0.74002 24.5045 0.869558C24.7568 1.10318 24.8391 1.5012 24.6845 1.73878C24.6818 1.74279 11.4863 22.9942 11.4863 22.9942C11.0324 23.6873 10.3213 24.1089 9.53436 24.1512C9.49075 24.1535 9.44658 24.1547 9.40342 24.1547Z" fill="#D3FF2E"/>
<path d="M23.9958 1.33847C24.0059 1.33803 24.0159 1.3398 24.0253 1.34365C24.0346 1.34751 24.043 1.35335 24.0498 1.36077C24.0687 1.37953 24.0823 1.40297 24.0891 1.4287L10.922 22.6341C10.5813 23.1507 10.076 23.4521 9.49811 23.4831C9.46644 23.4848 9.43448 23.4857 9.40303 23.4857C9.15516 23.4867 8.91026 23.4316 8.68673 23.3245C8.4632 23.2174 8.26683 23.061 8.11236 22.8672L1.76136 15.0874C1.53981 14.8161 1.39855 14.4882 1.35355 14.1409C1.30854 13.7935 1.36159 13.4405 1.50669 13.1217C1.6518 12.8029 1.88317 12.531 2.17467 12.3368C2.46617 12.1426 2.80617 12.0338 3.15626 12.0227C3.17667 12.0221 3.19712 12.0218 3.21761 12.0218C3.68478 12.0216 4.13516 12.196 4.48033 12.5108L8.78789 16.4306C9.03431 16.6549 9.3555 16.7792 9.68868 16.7792C9.71271 16.7792 9.73686 16.7785 9.76118 16.7772C9.93824 16.7676 10.1116 16.723 10.2713 16.6458C10.431 16.5687 10.5737 16.4606 10.6912 16.3278L23.8991 1.40455C23.9107 1.39139 23.9221 1.37801 23.9333 1.3644C23.9395 1.35625 23.9475 1.34968 23.9568 1.34523C23.966 1.34078 23.9762 1.33858 23.9865 1.3388C23.9896 1.3388 23.9926 1.33847 23.9958 1.33847ZM23.9959 4.25363e-06C23.9625 4.25363e-06 23.929 0.00111965 23.8956 0.00346196C23.7027 0.0158471 23.5146 0.0678919 23.3428 0.15634C23.171 0.244787 23.0194 0.367734 22.8973 0.517487L9.68851 15.4406L5.38095 11.5206C4.78987 10.9808 4.0179 10.6821 3.21738 10.6834C3.18307 10.6834 3.14868 10.684 3.11421 10.6851C2.51465 10.7041 1.93236 10.8904 1.43313 11.223C0.933895 11.5555 0.537619 12.0211 0.289071 12.567C0.0405231 13.113 -0.0503896 13.7176 0.0266045 14.3125C0.103599 14.9074 0.345431 15.4689 0.724778 15.9336L7.07583 23.7134C7.3559 24.0609 7.71045 24.3412 8.11331 24.5334C8.51617 24.7256 8.95706 24.8249 9.40342 24.8239C9.45867 24.8239 9.51419 24.8224 9.57 24.8194C10.575 24.7654 11.4786 24.2321 12.0508 23.3536L25.2452 2.10401C25.5781 1.59311 25.4524 0.835204 24.9592 0.37851C24.6977 0.134464 24.3536 -0.000874603 23.9959 4.25363e-06Z" fill="#0A0E1A"/>
</svg>
