<svg width="61" height="239" viewBox="0 0 61 239" fill="none" xmlns="http://www.w3.org/2000/svg">
<path opacity="0.16" d="M60 21.1034L1.00001 0.999997M60 33.8448L1.00001 13.7586M60 46.6034L1.00001 26.5172M60 59.3621L1.00001 39.2759M60 72.1207L1.00001 52.0345M60 84.8966L1.00001 64.7931M60 97.6552L1.00001 77.5517M60 110.414L1.00001 90.3103M60 123.172L1.00001 103.069M60 135.931L1.00001 115.845M60 148.69L1.00001 128.603M60 161.448L1.00001 141.362M60 174.207L1.00001 154.103M60 186.966L1 166.862M60 199.724L1 179.638M60 212.483L1 192.397M60 225.259L1 205.155M60 238L1 217.914" stroke="white" stroke-width="1.9059" stroke-miterlimit="10" stroke-linecap="round" stroke-linejoin="round"/>
</svg>
