<svg width="55" height="43" viewBox="0 0 55 43" fill="none" xmlns="http://www.w3.org/2000/svg">
<g opacity="0.1">
<path d="M43.4843 6.44279L43.4843 36.3438C43.4843 39.0553 45.678 41.2516 48.3865 41.2516C51.0951 41.2516 53.2888 39.0553 53.2888 36.3438L53.2888 6.44279C53.2888 3.73121 51.0951 1.53496 48.3866 1.53496C45.6842 1.53496 43.4843 3.73121 43.4843 6.44279Z" stroke="white" stroke-width="2" stroke-miterlimit="10" stroke-linecap="round" stroke-linejoin="round"/>
<path d="M22.2452 6.44279L22.2452 36.3438C22.2452 39.0553 24.439 41.2516 27.1475 41.2516C29.856 41.2516 32.0497 39.0553 32.0497 36.3438L32.0497 6.44279C32.0497 3.73121 29.856 1.53496 27.1475 1.53496C24.439 1.53496 22.2452 3.73121 22.2452 6.44279Z" stroke="white" stroke-width="2" stroke-miterlimit="10" stroke-linecap="round" stroke-linejoin="round"/>
<path d="M1 6.44279L1 36.3438C1 39.0553 3.19377 41.2516 5.90227 41.2516C8.61077 41.2516 10.8045 39.0553 10.8045 36.3438L10.8045 6.44279C10.8045 3.73121 8.61077 1.53496 5.90227 1.53496C3.19377 1.53496 1 3.73121 1 6.44279Z" stroke="white" stroke-width="2" stroke-miterlimit="10" stroke-linecap="round" stroke-linejoin="round"/>
</g>
</svg>
