<svg width="534" height="123" viewBox="0 0 534 123" fill="none" xmlns="http://www.w3.org/2000/svg">
<mask id="path-1-inside-1_2352_69" fill="white">
<path d="M0.923525 76.3188C3.02499 76.3188 4.21771 75.1823 5.86481 74.6141C5.9784 74.5005 6.1488 74.4436 6.26239 74.33C7.62551 73.3072 7.2847 71.7161 8.36383 70.6365C8.64781 70.466 8.87502 70.2387 9.159 70.0682C10.7493 69.1022 10.7493 69.1022 8.98859 68.3635C8.7614 68.2499 8.47746 68.1362 8.30707 67.9658C7.22794 66.9429 6.14878 65.8633 5.06964 64.7837C3.53614 64.2154 3.93369 63.0221 3.87689 62.1129C3.8201 61.1469 5.18325 61.2038 5.9784 61.1469C7.4551 61.0333 8.30707 60.2378 9.32941 59.5559C9.67019 59.4422 10.011 59.3854 10.3517 59.2718C10.8061 58.9877 11.4877 58.7604 11.4877 58.1921C11.4877 56.3738 12.5668 55.351 14.6115 54.8395C14.9522 54.7827 15.3498 54.5554 15.1226 54.2145C14.4411 53.1917 15.4634 52.7939 16.145 52.2825C16.6561 51.8847 17.3377 51.3165 16.8833 50.9187C14.9522 49.3277 17.4513 49.3277 18.0192 48.7594C18.3032 48.4185 19.0984 48.4185 19.6663 48.248C20.2343 48.0207 20.5183 47.5661 20.2911 46.9979C20.0639 46.4865 19.5528 46.5433 19.0984 46.657C18.4736 46.8274 18.0192 46.6001 17.3945 46.3728C14.5546 45.2932 11.8284 43.6453 8.36383 44.4408C8.13665 44.4977 7.73906 44.3272 7.56867 44.1567C6.83031 43.418 5.8648 42.793 5.46723 41.827C4.95606 41.3156 4.44489 40.861 3.82013 40.52C2.51381 39.7813 2.6274 38.5312 2.91138 37.622C3.19536 36.7697 4.33132 36.4856 5.52405 36.9401C5.80803 37.0538 6.09198 36.8833 6.20557 36.5992C6.43275 36.4856 6.60314 36.3719 6.83032 36.3151C6.94392 36.1446 6.94393 35.9173 7.11432 35.8037C8.53423 34.7809 10.0678 33.8149 10.5789 32.167C10.7493 31.5987 11.2605 31.0873 11.8853 30.6327C13.5891 29.3826 15.4066 28.1325 14.725 25.9164C14.6114 25.5186 15.1226 25.3482 15.293 25.1209C15.9178 24.1549 17.8488 24.3253 18.0192 23.1889C18.3032 21.541 19.4392 21.2 21.1431 21.3705C21.3703 21.3705 21.5406 21.3705 21.7678 21.3137C22.2789 20.4613 23.2445 19.9499 24.1532 19.4385C24.1532 19.3249 24.1532 19.2112 24.1532 19.0976C25.8571 18.4725 25.2324 16.8815 26.1411 15.9723C27.3338 14.9495 29.3217 14.4949 29.5489 12.7902C29.5489 12.7333 29.8329 12.6765 30.0033 12.6765C30.1169 12.6765 30.1737 12.6197 30.2873 12.6197C30.3441 12.2219 30.4008 11.8242 30.4008 11.4832C30.2873 9.77852 31.1392 8.64205 33.0703 8.47158C34.4334 8.35793 34.6606 7.84652 34.6038 6.99417C35.0582 6.59641 35.1718 5.80088 36.1373 5.91452C37.5572 6.14182 39.1475 4.94852 40.4538 6.36911C40.6242 6.59641 41.3626 6.48276 41.817 6.48276C42.8393 6.53958 43.8616 6.53958 44.8839 6.59641C50.9612 6.25546 56.9816 5.97135 63.0588 5.57358C85.6638 4.09617 108.269 3.47111 130.931 2.61876C143.823 2.10735 156.716 1.59594 169.666 1.36864C186.137 1.0277 202.608 0.914057 219.079 0.80041C226.916 0.743587 234.698 0.686763 242.535 0.573116C253.554 0.402646 264.516 -0.0519421 275.534 0.00488139C293.823 0.175352 312.111 0.0617049 330.4 0.175352C349.71 0.232175 369.021 1.08453 388.332 1.14135C397.817 1.14135 407.302 1.88006 416.787 2.56194C426.272 3.24382 435.757 3.69841 445.242 4.20982C450.183 4.49394 455.068 4.77805 460.009 4.83488C469.494 5.00535 479.036 5.17582 488.464 6.02817C489.714 6.14182 490.963 6.25546 491.929 7.10782C492.724 7.7897 494.03 7.7897 494.768 8.58523C500.732 8.98299 506.752 9.26711 512.659 10.3468C515.158 10.8013 517.657 11.3696 520.213 11.7105C521.122 11.8242 522.258 11.1991 522.769 11.6537C523.962 12.6765 525.893 12.9038 526.802 14.2676C527.483 15.3472 528.733 15.6882 530.209 15.3472C530.323 15.2904 530.493 15.2336 530.607 15.2336C531.629 15.0063 532.708 14.8358 533.447 15.5177C534.356 16.3132 533.958 17.2792 533.333 18.1884C533.276 18.5862 533.39 19.0407 532.936 19.3817C533.106 20.5182 531.175 20.9727 531.573 22.166C529.471 23.3025 527.71 24.7231 526.688 26.5983C526.177 27.6211 525.666 28.4166 524.303 28.7007C523.564 28.8712 522.939 29.1553 523.621 29.9509C524.473 30.9737 524.246 31.6556 522.826 32.2806C522.031 32.6216 521.292 32.9057 520.384 32.9625C519.361 33.0193 518.509 33.4171 518.907 34.4967C519.361 35.69 519.134 36.5992 517.714 37.2243C517.203 37.4516 517.089 38.0766 517.544 38.1903C519.418 38.5312 520.213 40.1791 522.088 40.4064C523.451 40.5768 524.814 40.9178 526.177 41.0314C527.313 41.1451 527.483 41.486 527.37 42.3952C527.142 44.2135 526.12 45.691 525.098 47.2252C524.984 47.2252 524.871 47.2252 524.757 47.2252C523.678 48.3048 521.576 48.5321 521.065 50.0664C520.952 50.1232 520.838 50.2368 520.668 50.2937C520.44 50.521 520.043 50.6914 519.986 50.9187C519.588 52.5098 518.623 53.5894 516.635 54.1008C515.954 54.2713 515.272 54.7259 515.329 55.6351C515.386 56.6011 516.465 56.1465 517.089 56.6011C515.84 57.1125 515.045 58.1921 513.454 57.5102C513.114 57.3966 512.773 57.6807 512.546 57.8512C511.864 58.3626 511.183 58.9308 510.444 59.4991C511.353 59.8968 512.375 60.3514 511.864 61.2606C511.41 62.1698 510.331 62.2266 509.252 61.8857C507.945 61.4879 506.696 61.4311 505.389 61.8288C505.105 62.4539 503.913 62.3971 503.969 63.1926C504.026 64.0449 503.401 64.4995 502.72 65.0109C503.401 66.2611 504.821 66.9998 506.128 67.7953C507.718 67.6248 509.252 67.9658 510.785 68.0226C511.751 68.0794 512.091 68.5908 512.035 69.2159C511.978 69.8409 512.035 70.5228 511.41 70.9774C511.523 72.4548 509.99 73.2503 509.308 74.3868C509.308 74.4436 509.252 74.4436 509.252 74.4436C509.138 74.6141 509.081 74.7846 509.024 74.955C508.968 75.0687 508.513 75.1255 508.229 75.1824C507.945 75.7506 506.98 75.6369 506.696 76.3188C506.014 77.7394 504.31 78.6486 503.969 80.2396C503.856 80.6942 503.118 80.8079 502.436 80.8647C501.016 80.9783 501.13 81.6034 501.698 82.3989C502.663 83.7627 503.742 84.5014 506.071 84.3309C509.536 84.0468 509.876 84.6151 508.968 87.2858C508.854 87.5699 508.797 87.854 508.684 88.1381C508.002 89.2746 508.57 89.7292 509.933 89.6155C511.239 89.5019 511.41 90.0133 511.296 90.8088C511.126 92.0589 510.899 93.4227 509.99 94.4455C509.081 95.4683 508.911 97.0026 507.036 97.3435C505.901 98.5368 504.708 99.7869 503.572 100.98C503.401 101.946 503.004 102.742 501.584 102.912C500.505 102.799 500.164 103.48 499.653 103.992C499.71 104.219 499.71 104.503 500.051 104.617C500.562 104.731 501.13 104.674 501.13 105.356C501.13 105.981 500.562 106.151 500.107 106.549C498.971 107.458 497.835 106.947 496.7 106.89C496.188 107.515 495.961 108.083 496.245 108.935C496.756 110.356 495.28 111.833 493.86 111.379C492.326 110.867 490.793 110.867 489.259 110.697C486.817 111.038 484.375 110.697 481.932 110.583C479.49 110.47 477.275 110.356 476.423 112.743C476.31 112.856 476.196 112.97 476.082 113.027C475.628 113.822 474.265 113.538 473.754 114.22C473.356 114.731 471.595 115.527 474.095 115.641C474.606 115.641 474.663 116.095 474.719 116.436C473.64 117.061 472.731 117.8 471.198 117.8C469.494 117.743 468.756 118.709 469.38 120.016C469.948 121.153 469.04 122.062 467.393 122.062C459.839 122.062 452.228 122.119 444.674 122.062C432.179 121.948 419.627 121.664 407.132 121.55C393.557 121.437 379.926 121.721 366.352 121.323C341.872 120.584 317.393 119.391 292.971 118.425C282.861 118.027 272.751 117.629 262.698 117.232C249.237 117.061 235.777 116.834 222.316 117.061C215.103 117.175 207.89 116.834 200.677 116.834C183.354 116.72 166.088 116.777 148.765 116.607C138.2 116.493 127.636 116.038 117.015 115.811C112.301 115.697 107.53 115.641 102.816 115.982C102.532 116.209 102.192 116.266 101.794 116.209C99.8061 115.982 97.875 116.266 95.9439 116.266C94.24 116.323 92.5362 116.209 90.8323 116.55C90.6051 116.55 90.3779 116.55 90.1507 116.55C89.1284 116.948 88.1628 116.379 87.1405 116.493C83.1079 116.891 79.0186 116.891 74.986 117.004C68.9656 117.175 62.8884 117.232 56.868 117.573C51.9267 117.857 46.9854 118.482 42.0441 118.425C35.7397 118.368 29.4921 118.652 23.1877 118.709C22.5061 118.709 21.5406 118.936 21.2567 118.027H21.3134C21.1998 117.914 21.0862 117.857 20.9727 117.743C20.4615 117.686 19.9503 117.573 19.4391 117.516C17.6785 116.663 15.861 115.925 13.7595 116.266C11.4309 116.607 10.5789 115.3 9.61334 113.993C9.49975 113.879 9.38618 113.765 9.27258 113.652C8.64782 113.254 8.0799 112.856 7.45514 112.515C6.20562 111.833 6.77357 110.754 6.65997 109.845C6.54638 108.992 7.73904 109.106 8.42059 108.992C9.10215 108.879 9.84055 108.992 10.4085 108.481C10.7493 108.367 10.9765 108.026 11.4877 108.197C11.9988 107.913 12.51 107.685 13.0212 107.401C12.9644 107.401 12.9643 107.401 12.9075 107.401C13.9867 106.094 13.8163 104.39 15.1226 103.196C14.7818 102.117 13.5891 102.458 12.9644 102.571C10.9197 103.026 9.61337 102.344 8.64783 100.923C8.53424 100.81 8.42066 100.696 8.30707 100.582C8.30707 100.412 8.25025 100.242 8.25025 100.071C7.90947 99.7301 7.68224 99.2755 7.28467 99.0482C5.46718 98.139 5.41041 96.7753 5.80799 95.2979C7.39829 95.7524 8.87504 95.7524 9.72699 94.3887C10.4653 93.1954 12.5668 93.2522 13.0779 91.8884C13.1347 91.7748 13.1348 91.6612 13.1348 91.6043C12.794 90.5247 13.7027 89.8428 14.6115 89.5019C15.9746 88.9336 17.5081 88.6495 16.7697 86.9448C16.7129 86.8312 17.1673 86.547 17.3945 86.3197C17.7352 86.0356 18.5304 85.8652 18.076 85.2969C17.6784 84.8423 17.0537 85.0128 16.5993 85.1833C14.2139 86.0925 12.7372 84.4446 11.1469 83.649C10.4085 83.3081 9.84053 82.8535 8.98859 82.9672C7.73907 83.1376 6.43278 82.7399 5.24005 83.3081C4.89927 83.4786 4.55845 83.3649 4.38806 83.024C3.53612 81.6602 2.11622 80.6942 0.866702 79.6714C-0.21243 78.7054 -0.382792 76.3188 0.923525 76.3188ZM494.712 8.92617C494.712 8.92617 494.768 8.92617 494.768 8.98299C494.768 8.98299 494.768 8.98299 494.825 8.98299C494.825 8.92617 494.825 8.92617 494.825 8.86934C494.768 8.86934 494.768 8.86934 494.712 8.92617ZM19.2687 22.3365C19.3255 22.2797 19.3256 22.2797 19.3824 22.2229C19.3256 22.2229 19.3255 22.2797 19.2687 22.3365Z"/>
</mask>
<path d="M0.923525 76.3188C3.02499 76.3188 4.21771 75.1823 5.86481 74.6141C5.9784 74.5005 6.1488 74.4436 6.26239 74.33C7.62551 73.3072 7.2847 71.7161 8.36383 70.6365C8.64781 70.466 8.87502 70.2387 9.159 70.0682C10.7493 69.1022 10.7493 69.1022 8.98859 68.3635C8.7614 68.2499 8.47746 68.1362 8.30707 67.9658C7.22794 66.9429 6.14878 65.8633 5.06964 64.7837C3.53614 64.2154 3.93369 63.0221 3.87689 62.1129C3.8201 61.1469 5.18325 61.2038 5.9784 61.1469C7.4551 61.0333 8.30707 60.2378 9.32941 59.5559C9.67019 59.4422 10.011 59.3854 10.3517 59.2718C10.8061 58.9877 11.4877 58.7604 11.4877 58.1921C11.4877 56.3738 12.5668 55.351 14.6115 54.8395C14.9522 54.7827 15.3498 54.5554 15.1226 54.2145C14.4411 53.1917 15.4634 52.7939 16.145 52.2825C16.6561 51.8847 17.3377 51.3165 16.8833 50.9187C14.9522 49.3277 17.4513 49.3277 18.0192 48.7594C18.3032 48.4185 19.0984 48.4185 19.6663 48.248C20.2343 48.0207 20.5183 47.5661 20.2911 46.9979C20.0639 46.4865 19.5528 46.5433 19.0984 46.657C18.4736 46.8274 18.0192 46.6001 17.3945 46.3728C14.5546 45.2932 11.8284 43.6453 8.36383 44.4408C8.13665 44.4977 7.73906 44.3272 7.56867 44.1567C6.83031 43.418 5.8648 42.793 5.46723 41.827C4.95606 41.3156 4.44489 40.861 3.82013 40.52C2.51381 39.7813 2.6274 38.5312 2.91138 37.622C3.19536 36.7697 4.33132 36.4856 5.52405 36.9401C5.80803 37.0538 6.09198 36.8833 6.20557 36.5992C6.43275 36.4856 6.60314 36.3719 6.83032 36.3151C6.94392 36.1446 6.94393 35.9173 7.11432 35.8037C8.53423 34.7809 10.0678 33.8149 10.5789 32.167C10.7493 31.5987 11.2605 31.0873 11.8853 30.6327C13.5891 29.3826 15.4066 28.1325 14.725 25.9164C14.6114 25.5186 15.1226 25.3482 15.293 25.1209C15.9178 24.1549 17.8488 24.3253 18.0192 23.1889C18.3032 21.541 19.4392 21.2 21.1431 21.3705C21.3703 21.3705 21.5406 21.3705 21.7678 21.3137C22.2789 20.4613 23.2445 19.9499 24.1532 19.4385C24.1532 19.3249 24.1532 19.2112 24.1532 19.0976C25.8571 18.4725 25.2324 16.8815 26.1411 15.9723C27.3338 14.9495 29.3217 14.4949 29.5489 12.7902C29.5489 12.7333 29.8329 12.6765 30.0033 12.6765C30.1169 12.6765 30.1737 12.6197 30.2873 12.6197C30.3441 12.2219 30.4008 11.8242 30.4008 11.4832C30.2873 9.77852 31.1392 8.64205 33.0703 8.47158C34.4334 8.35793 34.6606 7.84652 34.6038 6.99417C35.0582 6.59641 35.1718 5.80088 36.1373 5.91452C37.5572 6.14182 39.1475 4.94852 40.4538 6.36911C40.6242 6.59641 41.3626 6.48276 41.817 6.48276C42.8393 6.53958 43.8616 6.53958 44.8839 6.59641C50.9612 6.25546 56.9816 5.97135 63.0588 5.57358C85.6638 4.09617 108.269 3.47111 130.931 2.61876C143.823 2.10735 156.716 1.59594 169.666 1.36864C186.137 1.0277 202.608 0.914057 219.079 0.80041C226.916 0.743587 234.698 0.686763 242.535 0.573116C253.554 0.402646 264.516 -0.0519421 275.534 0.00488139C293.823 0.175352 312.111 0.0617049 330.4 0.175352C349.71 0.232175 369.021 1.08453 388.332 1.14135C397.817 1.14135 407.302 1.88006 416.787 2.56194C426.272 3.24382 435.757 3.69841 445.242 4.20982C450.183 4.49394 455.068 4.77805 460.009 4.83488C469.494 5.00535 479.036 5.17582 488.464 6.02817C489.714 6.14182 490.963 6.25546 491.929 7.10782C492.724 7.7897 494.03 7.7897 494.768 8.58523C500.732 8.98299 506.752 9.26711 512.659 10.3468C515.158 10.8013 517.657 11.3696 520.213 11.7105C521.122 11.8242 522.258 11.1991 522.769 11.6537C523.962 12.6765 525.893 12.9038 526.802 14.2676C527.483 15.3472 528.733 15.6882 530.209 15.3472C530.323 15.2904 530.493 15.2336 530.607 15.2336C531.629 15.0063 532.708 14.8358 533.447 15.5177C534.356 16.3132 533.958 17.2792 533.333 18.1884C533.276 18.5862 533.39 19.0407 532.936 19.3817C533.106 20.5182 531.175 20.9727 531.573 22.166C529.471 23.3025 527.71 24.7231 526.688 26.5983C526.177 27.6211 525.666 28.4166 524.303 28.7007C523.564 28.8712 522.939 29.1553 523.621 29.9509C524.473 30.9737 524.246 31.6556 522.826 32.2806C522.031 32.6216 521.292 32.9057 520.384 32.9625C519.361 33.0193 518.509 33.4171 518.907 34.4967C519.361 35.69 519.134 36.5992 517.714 37.2243C517.203 37.4516 517.089 38.0766 517.544 38.1903C519.418 38.5312 520.213 40.1791 522.088 40.4064C523.451 40.5768 524.814 40.9178 526.177 41.0314C527.313 41.1451 527.483 41.486 527.37 42.3952C527.142 44.2135 526.12 45.691 525.098 47.2252C524.984 47.2252 524.871 47.2252 524.757 47.2252C523.678 48.3048 521.576 48.5321 521.065 50.0664C520.952 50.1232 520.838 50.2368 520.668 50.2937C520.44 50.521 520.043 50.6914 519.986 50.9187C519.588 52.5098 518.623 53.5894 516.635 54.1008C515.954 54.2713 515.272 54.7259 515.329 55.6351C515.386 56.6011 516.465 56.1465 517.089 56.6011C515.84 57.1125 515.045 58.1921 513.454 57.5102C513.114 57.3966 512.773 57.6807 512.546 57.8512C511.864 58.3626 511.183 58.9308 510.444 59.4991C511.353 59.8968 512.375 60.3514 511.864 61.2606C511.41 62.1698 510.331 62.2266 509.252 61.8857C507.945 61.4879 506.696 61.4311 505.389 61.8288C505.105 62.4539 503.913 62.3971 503.969 63.1926C504.026 64.0449 503.401 64.4995 502.72 65.0109C503.401 66.2611 504.821 66.9998 506.128 67.7953C507.718 67.6248 509.252 67.9658 510.785 68.0226C511.751 68.0794 512.091 68.5908 512.035 69.2159C511.978 69.8409 512.035 70.5228 511.41 70.9774C511.523 72.4548 509.99 73.2503 509.308 74.3868C509.308 74.4436 509.252 74.4436 509.252 74.4436C509.138 74.6141 509.081 74.7846 509.024 74.955C508.968 75.0687 508.513 75.1255 508.229 75.1824C507.945 75.7506 506.98 75.6369 506.696 76.3188C506.014 77.7394 504.31 78.6486 503.969 80.2396C503.856 80.6942 503.118 80.8079 502.436 80.8647C501.016 80.9783 501.13 81.6034 501.698 82.3989C502.663 83.7627 503.742 84.5014 506.071 84.3309C509.536 84.0468 509.876 84.6151 508.968 87.2858C508.854 87.5699 508.797 87.854 508.684 88.1381C508.002 89.2746 508.57 89.7292 509.933 89.6155C511.239 89.5019 511.41 90.0133 511.296 90.8088C511.126 92.0589 510.899 93.4227 509.99 94.4455C509.081 95.4683 508.911 97.0026 507.036 97.3435C505.901 98.5368 504.708 99.7869 503.572 100.98C503.401 101.946 503.004 102.742 501.584 102.912C500.505 102.799 500.164 103.48 499.653 103.992C499.71 104.219 499.71 104.503 500.051 104.617C500.562 104.731 501.13 104.674 501.13 105.356C501.13 105.981 500.562 106.151 500.107 106.549C498.971 107.458 497.835 106.947 496.7 106.89C496.188 107.515 495.961 108.083 496.245 108.935C496.756 110.356 495.28 111.833 493.86 111.379C492.326 110.867 490.793 110.867 489.259 110.697C486.817 111.038 484.375 110.697 481.932 110.583C479.49 110.47 477.275 110.356 476.423 112.743C476.31 112.856 476.196 112.97 476.082 113.027C475.628 113.822 474.265 113.538 473.754 114.22C473.356 114.731 471.595 115.527 474.095 115.641C474.606 115.641 474.663 116.095 474.719 116.436C473.64 117.061 472.731 117.8 471.198 117.8C469.494 117.743 468.756 118.709 469.38 120.016C469.948 121.153 469.04 122.062 467.393 122.062C459.839 122.062 452.228 122.119 444.674 122.062C432.179 121.948 419.627 121.664 407.132 121.55C393.557 121.437 379.926 121.721 366.352 121.323C341.872 120.584 317.393 119.391 292.971 118.425C282.861 118.027 272.751 117.629 262.698 117.232C249.237 117.061 235.777 116.834 222.316 117.061C215.103 117.175 207.89 116.834 200.677 116.834C183.354 116.72 166.088 116.777 148.765 116.607C138.2 116.493 127.636 116.038 117.015 115.811C112.301 115.697 107.53 115.641 102.816 115.982C102.532 116.209 102.192 116.266 101.794 116.209C99.8061 115.982 97.875 116.266 95.9439 116.266C94.24 116.323 92.5362 116.209 90.8323 116.55C90.6051 116.55 90.3779 116.55 90.1507 116.55C89.1284 116.948 88.1628 116.379 87.1405 116.493C83.1079 116.891 79.0186 116.891 74.986 117.004C68.9656 117.175 62.8884 117.232 56.868 117.573C51.9267 117.857 46.9854 118.482 42.0441 118.425C35.7397 118.368 29.4921 118.652 23.1877 118.709C22.5061 118.709 21.5406 118.936 21.2567 118.027H21.3134C21.1998 117.914 21.0862 117.857 20.9727 117.743C20.4615 117.686 19.9503 117.573 19.4391 117.516C17.6785 116.663 15.861 115.925 13.7595 116.266C11.4309 116.607 10.5789 115.3 9.61334 113.993C9.49975 113.879 9.38618 113.765 9.27258 113.652C8.64782 113.254 8.0799 112.856 7.45514 112.515C6.20562 111.833 6.77357 110.754 6.65997 109.845C6.54638 108.992 7.73904 109.106 8.42059 108.992C9.10215 108.879 9.84055 108.992 10.4085 108.481C10.7493 108.367 10.9765 108.026 11.4877 108.197C11.9988 107.913 12.51 107.685 13.0212 107.401C12.9644 107.401 12.9643 107.401 12.9075 107.401C13.9867 106.094 13.8163 104.39 15.1226 103.196C14.7818 102.117 13.5891 102.458 12.9644 102.571C10.9197 103.026 9.61337 102.344 8.64783 100.923C8.53424 100.81 8.42066 100.696 8.30707 100.582C8.30707 100.412 8.25025 100.242 8.25025 100.071C7.90947 99.7301 7.68224 99.2755 7.28467 99.0482C5.46718 98.139 5.41041 96.7753 5.80799 95.2979C7.39829 95.7524 8.87504 95.7524 9.72699 94.3887C10.4653 93.1954 12.5668 93.2522 13.0779 91.8884C13.1347 91.7748 13.1348 91.6612 13.1348 91.6043C12.794 90.5247 13.7027 89.8428 14.6115 89.5019C15.9746 88.9336 17.5081 88.6495 16.7697 86.9448C16.7129 86.8312 17.1673 86.547 17.3945 86.3197C17.7352 86.0356 18.5304 85.8652 18.076 85.2969C17.6784 84.8423 17.0537 85.0128 16.5993 85.1833C14.2139 86.0925 12.7372 84.4446 11.1469 83.649C10.4085 83.3081 9.84053 82.8535 8.98859 82.9672C7.73907 83.1376 6.43278 82.7399 5.24005 83.3081C4.89927 83.4786 4.55845 83.3649 4.38806 83.024C3.53612 81.6602 2.11622 80.6942 0.866702 79.6714C-0.21243 78.7054 -0.382792 76.3188 0.923525 76.3188ZM494.712 8.92617C494.712 8.92617 494.768 8.92617 494.768 8.98299C494.768 8.98299 494.768 8.98299 494.825 8.98299C494.825 8.92617 494.825 8.92617 494.825 8.86934C494.768 8.86934 494.768 8.86934 494.712 8.92617ZM19.2687 22.3365C19.3255 22.2797 19.3256 22.2797 19.3824 22.2229C19.3256 22.2229 19.3255 22.2797 19.2687 22.3365Z" fill="black" stroke="#0A0E1A" stroke-width="3" mask="url(#path-1-inside-1_2352_69)"/>
</svg>
