<svg width="174" height="164" viewBox="0 0 174 164" fill="none" xmlns="http://www.w3.org/2000/svg">
<path d="M1.2663 142.722L20.7577 162.268C21.8633 163.377 23.3629 164 24.9265 164C26.4902 164 27.9897 163.377 29.0954 162.268L48.5868 142.722C49.3967 141.91 49.8517 140.808 49.8517 139.66C49.8518 138.511 49.3968 137.409 48.587 136.597C47.7771 135.785 46.6787 135.329 45.5334 135.329C44.388 135.329 43.2896 135.785 42.4797 136.597L29.1713 149.87C29.724 94.4114 56.1118 75.688 71.9107 69.4593C73.0488 69.0106 74.2002 68.6009 75.3648 68.23C74.143 72.733 73.233 77.3154 72.6412 81.9444C70.7035 97.306 72.9132 110.029 78.8676 117.768C87.9186 129.534 99.955 134.841 112.753 132.715C119.29 131.583 125.392 128.676 130.396 124.31C135.453 119.996 139.266 114.404 141.44 108.114C145.621 95.8162 142.448 82.7564 132.732 72.2823C123.418 62.2395 108.64 56.817 93.1208 56.8174C91.5421 56.8174 89.9579 56.8742 88.3683 56.9878C90.512 51.9595 93.061 47.1148 95.9899 42.502C106.064 26.6801 128.917 1.49281 168.789 10.5538C169.898 10.7914 171.056 10.5812 172.011 9.96867C172.967 9.35613 173.643 8.39063 173.894 7.28146C174.144 6.17229 173.948 5.00881 173.349 4.04323C172.75 3.07765 171.796 2.38779 170.693 2.12314C164.715 0.737258 158.602 0.0253567 152.466 0.000656128C141.665 -0.0468992 131.005 2.45617 121.348 7.30733C108.688 13.6509 97.4078 24.2116 88.7246 37.8479C84.6134 44.3315 81.1904 51.229 78.5117 58.4275C75.1872 59.1677 71.9252 60.1663 68.7553 61.4142C54.7775 66.926 43.0515 77.1225 34.8463 90.9027C25.5906 106.446 20.7848 126.259 20.5482 149.812L7.37203 136.598C6.97101 136.196 6.49493 135.877 5.97099 135.659C5.44704 135.441 4.88548 135.329 4.31837 135.329C3.75126 135.329 3.1897 135.441 2.66576 135.659C2.14182 135.877 1.66576 136.196 1.26477 136.598C0.86377 137 0.545687 137.477 0.328677 138.003C0.111668 138.528 -1.57943e-05 139.091 1.67535e-09 139.66C1.57977e-05 140.229 0.111732 140.792 0.328771 141.317C0.545809 141.843 0.865283 142.32 1.2663 142.722ZM81.1928 83.0288C81.9368 77.2681 83.2069 71.5881 84.9873 66.0604C100.942 63.8698 117.275 68.308 126.422 78.1698C134.017 86.3571 136.453 95.9993 133.283 105.324C130.002 114.972 121.186 122.552 111.345 124.187C110.041 124.405 108.72 124.515 107.398 124.516C99.3285 124.516 91.7365 120.344 85.6937 112.488C81.2064 106.656 79.5665 95.9182 81.1928 83.0288Z" fill="white"/>
</svg>
